REM DIRINDEX 1\2,1\3,1\4,1\5,1\6
REM DIRNAME cjc129,folder01,folder02,folder03,folder04,folder05
TITLE ""
FILE "DISC1Track02.mp3" MP3
  TRACK 01 AUDIO
    TITLE "0:"
    INDEX 01 00:00:00
  TRACK 02 AUDIO
    TITLE "2:cjc129_0004"
    INDEX 01 00:06:35
  TRACK 03 AUDIO
    TITLE "0:"
    INDEX 01 00:11:33
  TRACK 04 AUDIO
    TITLE "2:cjc129_0005"
    INDEX 01 00:12:50
  TRACK 05 AUDIO
    TITLE "0:"
    INDEX 01 00:17:69
  TRACK 06 AUDIO
    TITLE "3:cjc129_0006"
    INDEX 01 00:19:07
  TRACK 07 AUDIO
    TITLE "0:"
    INDEX 01 00:20:32
  TRACK 08 AUDIO
    TITLE "5:cjc129_0007"
    INDEX 01 00:20:65
  TRACK 09 AUDIO
    TITLE "0:"
    INDEX 01 00:24:72
  TRACK 10 AUDIO
    TITLE "4:cjc129_0008"
    INDEX 01 00:25:60
  TRACK 11 AUDIO
    TITLE "0:"
    INDEX 01 00:27:12
  TRACK 12 AUDIO
    TITLE "6:cjc129_0009"
    INDEX 01 00:27:43
  TRACK 13 AUDIO
    TITLE "0:"
    INDEX 01 00:31:45
  TRACK 14 AUDIO
    TITLE "3:cjc129_0010"
    INDEX 01 00:33:19
  TRACK 15 AUDIO
    TITLE "0:"
    INDEX 01 00:34:36
  TRACK 16 AUDIO
    TITLE "5:cjc129_0011"
    INDEX 01 00:34:71
  TRACK 17 AUDIO
    TITLE "0:"
    INDEX 01 00:42:29
  TRACK 18 AUDIO
    TITLE "4:cjc129_0012"
    INDEX 01 00:43:19
  TRACK 19 AUDIO
    TITLE "0:"
    INDEX 01 00:44:38
  TRACK 20 AUDIO
    TITLE "6:cjc129_0013"
    INDEX 01 00:44:69
  TRACK 21 AUDIO
    TITLE "0:"
    INDEX 01 00:47:34
  TRACK 22 AUDIO
    TITLE "3:cjc129_0014"
    INDEX 01 00:49:12
  TRACK 23 AUDIO
    TITLE "0:"
    INDEX 01 00:50:44
  TRACK 24 AUDIO
    TITLE "5:cjc129_0015"
    INDEX 01 00:52:16
  TRACK 25 AUDIO
    TITLE "0:"
    INDEX 01 00:55:53
  TRACK 26 AUDIO
    TITLE "4:cjc129_0016"
    INDEX 01 00:56:43
  TRACK 27 AUDIO
    TITLE "0:"
    INDEX 01 00:57:74
  TRACK 28 AUDIO
    TITLE "6:cjc129_0017"
    INDEX 01 00:58:30
  TRACK 29 AUDIO
    TITLE "0:"
    INDEX 01 01:02:55
  TRACK 30 AUDIO
    TITLE "3:cjc129_0018"
    INDEX 01 01:04:31
  TRACK 31 AUDIO
    TITLE "0:"
    INDEX 01 01:05:60
  TRACK 32 AUDIO
    TITLE "5:cjc129_0019"
    INDEX 01 01:07:17
  TRACK 33 AUDIO
    TITLE "0:"
    INDEX 01 01:08:72
  TRACK 34 AUDIO
    TITLE "4:cjc129_0020"
    INDEX 01 01:09:63
  TRACK 35 AUDIO
    TITLE "0:"
    INDEX 01 01:11:19
  TRACK 36 AUDIO
    TITLE "6:cjc129_0021"
    INDEX 01 01:11:52
  TRACK 37 AUDIO
    TITLE "0:"
    INDEX 01 01:16:60
  TRACK 38 AUDIO
    TITLE "3:cjc129_0022"
    INDEX 01 01:18:37
  TRACK 39 AUDIO
    TITLE "0:"
    INDEX 01 01:22:19
  TRACK 40 AUDIO
    TITLE "5:cjc129_0023"
    INDEX 01 01:22:52
  TRACK 41 AUDIO
    TITLE "0:"
    INDEX 01 01:24:71
  TRACK 42 AUDIO
    TITLE "4:cjc129_0024"
    INDEX 01 01:25:64
  TRACK 43 AUDIO
    TITLE "0:"
    INDEX 01 01:29:48
  TRACK 44 AUDIO
    TITLE "6:cjc129_0025"
    INDEX 01 01:30:05
  TRACK 45 AUDIO
    TITLE "0:"
    INDEX 01 01:33:52
  TRACK 46 AUDIO
    TITLE "3:cjc129_0026"
    INDEX 01 01:35:27
  TRACK 47 AUDIO
    TITLE "0:"
    INDEX 01 01:36:43
  TRACK 48 AUDIO
    TITLE "5:cjc129_0027"
    INDEX 01 01:37:01
  TRACK 49 AUDIO
    TITLE "0:"
    INDEX 01 01:38:63
  TRACK 50 AUDIO
    TITLE "4:cjc129_0028"
    INDEX 01 01:39:53
  TRACK 51 AUDIO
    TITLE "0:"
    INDEX 01 01:40:68
  TRACK 52 AUDIO
    TITLE "6:cjc129_0029"
    INDEX 01 01:41:26
  TRACK 53 AUDIO
    TITLE "0:"
    INDEX 01 01:45:40
  TRACK 54 AUDIO
    TITLE "3:cjc129_0030"
    INDEX 01 01:47:15
  TRACK 55 AUDIO
    TITLE "0:"
    INDEX 01 01:48:44
  TRACK 56 AUDIO
    TITLE "5:cjc129_0031"
    INDEX 01 01:49:00
  TRACK 57 AUDIO
    TITLE "0:"
    INDEX 01 01:53:27
  TRACK 58 AUDIO
    TITLE "4:cjc129_0032"
    INDEX 01 01:54:15
  TRACK 59 AUDIO
    TITLE "0:"
    INDEX 01 01:55:44
  TRACK 60 AUDIO
    TITLE "6:cjc129_0033"
    INDEX 01 01:56:00
  TRACK 61 AUDIO
    TITLE "0:"
    INDEX 01 02:00:25
